<?xml version="1.0" encoding="UTF-8"?>
<svg xmlns="http://www.w3.org/2000/svg" xmlns:xlink="http://www.w3.org/1999/xlink" width="50px" height="50px" viewBox="0 0 50 50" version="1.1">
<g id="surface1">
<path style=" stroke:none;fill-rule:nonzero;fill:rgb(0%,0%,0%);fill-opacity:1;" d="M 37.480469 12.628906 C 37.476562 12.617188 37.46875 12.605469 37.464844 12.59375 C 37.457031 12.5625 37.445312 12.535156 37.425781 12.507812 C 37.417969 12.496094 37.410156 12.484375 37.398438 12.46875 C 37.382812 12.445312 37.363281 12.425781 37.34375 12.40625 C 37.332031 12.394531 37.316406 12.382812 37.304688 12.371094 C 37.292969 12.363281 37.28125 12.351562 37.269531 12.34375 C 37.257812 12.335938 37.246094 12.332031 37.234375 12.328125 C 37.226562 12.320312 37.21875 12.316406 37.210938 12.308594 L 25.210938 6.796875 C 25.078125 6.734375 24.925781 6.734375 24.792969 6.796875 L 12.792969 12.308594 C 12.78125 12.316406 12.773438 12.320312 12.765625 12.328125 C 12.753906 12.332031 12.742188 12.335938 12.730469 12.34375 C 12.71875 12.351562 12.707031 12.363281 12.695312 12.371094 C 12.683594 12.382812 12.667969 12.394531 12.65625 12.40625 C 12.636719 12.425781 12.617188 12.445312 12.601562 12.46875 C 12.589844 12.484375 12.582031 12.496094 12.574219 12.507812 C 12.558594 12.535156 12.546875 12.5625 12.535156 12.59375 C 12.53125 12.605469 12.523438 12.617188 12.519531 12.628906 C 12.507812 12.675781 12.5 12.71875 12.5 12.765625 L 12.5 16.253906 C 12.5 16.449219 12.613281 16.625 12.792969 16.707031 L 18.496094 19.3125 L 12.792969 21.933594 C 12.78125 21.941406 12.773438 21.945312 12.765625 21.953125 C 12.753906 21.957031 12.742188 21.960938 12.730469 21.96875 C 12.71875 21.976562 12.707031 21.988281 12.695312 21.996094 C 12.683594 22.007812 12.667969 22.019531 12.65625 22.03125 C 12.636719 22.050781 12.617188 22.070312 12.601562 22.09375 C 12.589844 22.109375 12.582031 22.121094 12.574219 22.132812 C 12.558594 22.160156 12.546875 22.1875 12.535156 22.21875 C 12.53125 22.230469 12.523438 22.242188 12.519531 22.257812 C 12.507812 22.300781 12.5 22.34375 12.5 22.390625 L 12.5 25.378906 C 12.5 25.574219 12.613281 25.75 12.792969 25.832031 L 19.042969 28.6875 L 12.792969 31.558594 C 12.78125 31.566406 12.773438 31.570312 12.765625 31.578125 C 12.753906 31.582031 12.742188 31.585938 12.730469 31.59375 C 12.71875 31.601562 12.707031 31.613281 12.695312 31.621094 C 12.683594 31.632812 12.667969 31.644531 12.65625 31.65625 C 12.636719 31.675781 12.617188 31.695312 12.601562 31.71875 C 12.589844 31.734375 12.582031 31.746094 12.574219 31.757812 C 12.558594 31.785156 12.546875 31.8125 12.535156 31.84375 C 12.53125 31.855469 12.523438 31.867188 12.519531 31.878906 C 12.507812 31.925781 12.5 31.96875 12.5 32.015625 L 12.5 35.003906 C 12.5 35.199219 12.613281 35.375 12.792969 35.457031 L 24.792969 40.941406 C 24.859375 40.96875 24.929688 40.984375 25 40.984375 C 25.070312 40.984375 25.140625 40.96875 25.207031 40.941406 L 37.207031 35.457031 C 37.386719 35.375 37.5 35.199219 37.5 35.003906 L 37.5 32.015625 C 37.5 31.96875 37.492188 31.925781 37.480469 31.878906 C 37.476562 31.867188 37.46875 31.855469 37.464844 31.84375 C 37.453125 31.8125 37.441406 31.785156 37.425781 31.757812 C 37.417969 31.746094 37.410156 31.734375 37.398438 31.71875 C 37.382812 31.695312 37.363281 31.675781 37.34375 31.65625 C 37.332031 31.644531 37.316406 31.632812 37.304688 31.621094 C 37.292969 31.613281 37.28125 31.601562 37.269531 31.59375 C 37.257812 31.585938 37.246094 31.582031 37.234375 31.578125 C 37.226562 31.570312 37.21875 31.5625 37.207031 31.558594 L 30.957031 28.6875 L 37.207031 25.832031 C 37.386719 25.75 37.5 25.574219 37.5 25.378906 L 37.5 22.390625 C 37.5 22.34375 37.492188 22.300781 37.480469 22.253906 C 37.476562 22.242188 37.46875 22.230469 37.464844 22.21875 C 37.453125 22.1875 37.441406 22.160156 37.425781 22.132812 C 37.417969 22.121094 37.410156 22.109375 37.398438 22.09375 C 37.382812 22.070312 37.363281 22.050781 37.34375 22.03125 C 37.332031 22.019531 37.316406 22.007812 37.304688 21.996094 C 37.292969 21.988281 37.28125 21.976562 37.269531 21.96875 C 37.257812 21.960938 37.246094 21.957031 37.234375 21.953125 C 37.226562 21.945312 37.21875 21.9375 37.207031 21.933594 L 31.503906 19.3125 L 37.207031 16.707031 C 37.386719 16.625 37.5 16.449219 37.5 16.253906 L 37.5 12.765625 C 37.5 12.71875 37.492188 12.675781 37.480469 12.628906 Z M 25 36.949219 L 14.199219 32.011719 L 20.242188 29.238281 L 24.792969 31.316406 C 24.859375 31.34375 24.929688 31.359375 25 31.359375 C 25.070312 31.359375 25.140625 31.34375 25.207031 31.316406 L 29.757812 29.238281 L 35.800781 32.011719 Z M 26.5 26.636719 L 25.898438 26.914062 L 25.296875 27.1875 L 25 27.324219 L 24.703125 27.1875 L 24.101562 26.914062 L 23.5 26.636719 L 14.199219 22.386719 L 19.699219 19.863281 L 24.792969 22.191406 C 24.859375 22.21875 24.929688 22.234375 25 22.234375 C 25.070312 22.234375 25.140625 22.21875 25.207031 22.191406 L 30.304688 19.863281 L 35.800781 22.386719 Z M 25 7.800781 L 35.800781 12.761719 L 26.5 17.011719 L 25.898438 17.289062 L 25.296875 17.5625 L 25 17.699219 L 24.703125 17.5625 L 24.101562 17.289062 L 23.5 17.011719 L 14.199219 12.761719 Z M 25 7.800781 "/>
</g>
</svg>
