<?xml version="1.0" encoding="UTF-8"?>
<svg width="1200pt" height="1200pt" version="1.1" viewBox="0 0 1200 1200" xmlns="http://www.w3.org/2000/svg">
 <path d="m899.54 303.14c-0.085937-0.31641-0.24609-0.60547-0.35938-0.91406-0.25781-0.69531-0.53906-1.3789-0.92188-2.0117-0.19922-0.33203-0.44531-0.62891-0.67578-0.94141-0.40234-0.54297-0.82812-1.0625-1.3203-1.5352-0.30469-0.28906-0.63672-0.55469-0.97266-0.8125-0.27344-0.21484-0.5-0.47656-0.79688-0.66797-0.27344-0.17578-0.58594-0.26562-0.87109-0.41797-0.21484-0.11328-0.38281-0.28906-0.60547-0.39062l-288-132.36c-3.1875-1.4648-6.8438-1.4648-10.031 0l-288 132.36c-0.23047 0.10547-0.39844 0.28516-0.61719 0.40234-0.28125 0.14844-0.58594 0.23438-0.85938 0.40625-0.29688 0.19141-0.51953 0.45312-0.79688 0.66797-0.33594 0.25781-0.66797 0.52344-0.97266 0.8125-0.48828 0.46875-0.91797 0.99219-1.3203 1.5352-0.23047 0.3125-0.47656 0.60938-0.67578 0.94141-0.37891 0.63281-0.66406 1.3203-0.92188 2.0117-0.11328 0.30859-0.27344 0.59766-0.35938 0.91406-0.28125 1.0352-0.45703 2.1133-0.45703 3.2227v83.691c0 4.6992 2.7422 8.9648 7.0078 10.918l136.9 62.551-136.92 62.93c-0.22266 0.10156-0.39062 0.27734-0.60547 0.39453-0.28906 0.15234-0.59375 0.23828-0.87109 0.41406-0.29687 0.19141-0.51953 0.45312-0.79687 0.66797-0.33594 0.25781-0.66797 0.52344-0.97266 0.8125-0.48828 0.46875-0.91797 0.99219-1.3203 1.5352-0.23047 0.3125-0.47656 0.60938-0.67578 0.94141-0.37891 0.63281-0.66406 1.3203-0.92188 2.0117-0.11328 0.30859-0.27344 0.59766-0.35937 0.91406-0.28516 1.0312-0.46094 2.1094-0.46094 3.2188v71.691c0 4.6992 2.7422 8.9648 7.0078 10.918l149.99 68.531-150.02 68.945c-0.22656 0.10547-0.39453 0.28125-0.61328 0.39844-0.28516 0.15234-0.58984 0.23438-0.86328 0.41016-0.29687 0.19141-0.51953 0.45312-0.79687 0.66797-0.33594 0.25781-0.66797 0.52344-0.97266 0.8125-0.48828 0.46875-0.91797 0.99219-1.3203 1.5352-0.23047 0.3125-0.47656 0.60938-0.67578 0.94141-0.37891 0.63281-0.66406 1.3203-0.92188 2.0117-0.11328 0.30859-0.27344 0.59766-0.35937 0.91406-0.28516 1.0352-0.46094 2.1133-0.46094 3.2227v71.691c0 4.6992 2.7422 8.9648 7.0078 10.918l288 131.59c1.5938 0.72266 3.293 1.082 4.9922 1.082s3.3984-0.36328 4.9922-1.082l288-131.59c4.2656-1.9531 7.0078-6.2188 7.0078-10.918v-71.703c0-1.1055-0.17578-2.1758-0.46484-3.2148-0.085937-0.31641-0.24609-0.60547-0.35938-0.91406-0.25781-0.69531-0.53906-1.3789-0.92188-2.0117-0.19922-0.33203-0.44531-0.62891-0.67578-0.94141-0.40234-0.54297-0.82812-1.0625-1.3203-1.5352-0.30469-0.28906-0.63672-0.55469-0.97266-0.8125-0.27344-0.21484-0.5-0.47656-0.79688-0.66797-0.27734-0.17969-0.58984-0.26562-0.87891-0.42187-0.21094-0.11328-0.37891-0.28516-0.59766-0.38672l-150.01-68.941 149.99-68.531c4.2656-1.9531 7.0078-6.2188 7.0078-10.918v-71.703c0-1.1055-0.17578-2.1758-0.46484-3.2148-0.085937-0.31641-0.24609-0.60547-0.35938-0.91406-0.25781-0.69531-0.53906-1.3789-0.92188-2.0117-0.19922-0.33203-0.44531-0.62891-0.67578-0.94141-0.40234-0.54297-0.82812-1.0625-1.3203-1.5352-0.30469-0.28906-0.63672-0.55469-0.97266-0.8125-0.27344-0.21484-0.5-0.47656-0.79688-0.66797-0.27734-0.17969-0.59375-0.26953-0.88281-0.42187-0.21094-0.11328-0.375-0.28516-0.59375-0.38672l-136.92-62.93 136.9-62.551c4.2695-1.9453 7.0117-6.2109 7.0117-10.91v-83.703c0-1.1016-0.17578-2.1758-0.46484-3.2109zm-299.54 583.61-259.19-118.43 145.01-66.648 109.18 49.887c1.5938 0.72266 3.293 1.082 4.9922 1.082s3.3984-0.36328 4.9922-1.082l109.18-49.887 145.01 66.648zm35.973-247.44-14.414 6.5859-14.41 6.582-7.1484 3.2695-7.1484-3.2656-14.41-6.582-14.414-6.5859-223.21-102 131.92-60.629 122.28 55.871c1.5938 0.72266 3.293 1.082 4.9922 1.082s3.3984-0.36328 4.9922-1.082l122.28-55.871 131.92 60.629zm-35.973-452.11 259.19 119.12-223.22 101.99-14.414 6.5859-14.41 6.582-7.1445 3.2656-7.1484-3.2656-14.41-6.582-14.414-6.5859-223.21-102z"/>
</svg>
